<svg width="37" height="37" viewBox="0 0 37 37" fill="none" xmlns="http://www.w3.org/2000/svg">
<path d="M18.5 0.5C8.55909 0.5 0.5 8.55909 0.5 18.5C0.5 28.4409 8.55909 36.5 18.5 36.5C28.4409 36.5 36.5 28.4409 36.5 18.5C36.5 8.55909 28.4409 0.5 18.5 0.5ZM18.5 3.77273C26.6335 3.77273 33.2273 10.3665 33.2273 18.5C33.2273 26.6335 26.6335 33.2273 18.5 33.2273C10.3665 33.2273 3.77273 26.6335 3.77273 18.5C3.77273 10.3665 10.3665 3.77273 18.5 3.77273ZM25.8972 11.4128C25.4816 11.3649 24.9595 11.4788 24.3759 11.6893C23.3098 12.0738 9.68304 17.8601 8.89595 18.1948C8.15059 18.5122 7.44418 18.8582 7.44336 19.3581C7.44336 19.71 7.65198 19.9086 8.22798 20.114C8.82689 20.3284 10.3372 20.785 11.229 21.0312C12.0881 21.2677 13.0651 21.0616 13.6133 20.7212C14.1934 20.3604 20.8961 15.8757 21.3764 15.483C21.8567 15.0902 22.2406 15.5944 21.8478 15.9879C21.4551 16.3815 16.8539 20.8442 16.2468 21.4627C15.5104 22.2138 16.0339 22.9919 16.5281 23.3036C17.0918 23.6595 21.1504 26.3807 21.7615 26.8176C22.3727 27.2546 22.9915 27.4521 23.5593 27.4521C24.1271 27.4521 24.426 26.7037 24.7083 25.8365C25.0396 24.8211 26.5919 14.6971 26.7825 12.7024C26.8406 12.0978 26.6498 11.6959 26.2759 11.5167C26.1628 11.4625 26.0357 11.4288 25.8972 11.4128Z" fill="white"/>
</svg>
